<?xml version="1.0" encoding="utf-8"?>
<!-- Generator: Adobe Illustrator 27.1.1, SVG Export Plug-In . SVG Version: 6.00 Build 0)  -->
<svg version="1.1" id="Camada_1" xmlns="http://www.w3.org/2000/svg" xmlns:xlink="http://www.w3.org/1999/xlink" x="0px" y="0px"
	 viewBox="0 0 100 100" style="enable-background:new 0 0 100 100;" xml:space="preserve">
<style type="text/css">
	.st0{fill:#4D4D4D;}
	.st1{fill:#FF1D25;}
	.st2{fill:#F3F3F3;}
</style>
<g>
	<rect x="0" class="st0" width="100" height="100"/>
	<g>
		<path class="st1" d="M17.4,50C17.4,32,32,17.4,50,17.4S82.6,32,82.6,50S68,82.6,50,82.6S17.4,68,17.4,50z"/>
		<path class="st2" d="M65.9,58.5l-9.6-8.7l8.7-9.6c1.7-1.8,1.5-4.6-0.3-6.3c-1.8-1.7-4.6-1.5-6.3,0.3l-8.7,9.6L40.1,35
			c-1.8-1.7-4.6-1.5-6.3,0.3c-1.7,1.8-1.5,4.6,0.3,6.3l9.6,8.7L35,59.9c-1.7,1.8-1.5,4.6,0.3,6.3c0.9,0.8,1.9,1.2,3,1.2
			c1.2,0,2.4-0.5,3.3-1.4l8.7-9.6l9.6,8.7c0.9,0.8,1.9,1.2,3,1.2c1.2,0,2.4-0.5,3.3-1.4C67.8,62.9,67.7,60.1,65.9,58.5z"/>
	</g>
</g>
</svg>
