<?xml version="1.0" encoding="utf-8"?>
<!-- Generator: Adobe Illustrator 27.1.1, SVG Export Plug-In . SVG Version: 6.00 Build 0)  -->
<svg version="1.1" id="Camada_1" xmlns="http://www.w3.org/2000/svg" xmlns:xlink="http://www.w3.org/1999/xlink" x="0px" y="0px"
	 viewBox="0 0 100 100" style="enable-background:new 0 0 100 100;" xml:space="preserve">
<style type="text/css">
	.st0{fill:#4D4D4D;}
	.st1{fill:#F2F2F2;}
</style>
<g>
	<rect x="0" class="st0" width="100" height="100"/>
	<g>
		<g>
			<g>
				<path class="st1" d="M82.2,48.6L71.5,38.5c-0.5-0.5-1.4-0.7-2-0.4c-0.7,0.3-1.1,1-1.1,1.7v4.4H55.7V31.7h4.4
					c0.8,0,1.4-0.4,1.7-1.1s0.2-1.5-0.4-2L51.4,17.8c-0.4-0.4-0.9-0.6-1.4-0.6s-1,0.2-1.4,0.6L38.5,28.5c-0.5,0.5-0.7,1.4-0.4,2
					c0.3,0.7,1,1.1,1.7,1.1h4.4v12.6H31.7v-4.4c0-0.8-0.4-1.4-1.1-1.7c-0.7-0.3-1.5-0.2-2,0.4L17.8,48.6c-0.4,0.4-0.6,0.9-0.6,1.4
					c0,0.5,0.2,1,0.6,1.4l10.7,10.1c0.5,0.5,1.4,0.7,2,0.4c0.7-0.3,1.1-1,1.1-1.7v-4.4h12.6v12.6h-4.4c-0.8,0-1.4,0.4-1.7,1.1
					c-0.3,0.7-0.2,1.5,0.4,2l10.1,10.7c0.4,0.4,0.9,0.6,1.4,0.6s1-0.2,1.4-0.6l10.1-10.7c0.5-0.5,0.7-1.4,0.4-2
					c-0.3-0.7-1-1.1-1.7-1.1h-4.4V55.7h12.6v4.4c0,0.8,0.4,1.4,1.1,1.7c0.7,0.3,1.5,0.2,2-0.4l10.7-10.1c0.4-0.4,0.6-0.9,0.6-1.4
					S82.5,49,82.2,48.6z"/>
			</g>
		</g>
	</g>
</g>
</svg>
