<?xml version="1.0" encoding="utf-8"?>
<!-- Generator: Adobe Illustrator 27.1.1, SVG Export Plug-In . SVG Version: 6.00 Build 0)  -->
<svg version="1.1" id="Camada_1" xmlns="http://www.w3.org/2000/svg" xmlns:xlink="http://www.w3.org/1999/xlink" x="0px" y="0px"
	 viewBox="0 0 100 100" style="enable-background:new 0 0 100 100;" xml:space="preserve">
<style type="text/css">
	.st0{fill:#4D4D4D;}
	.st1{fill:#39B54A;}
	.st2{fill:#F3F3F3;}
</style>
<g>
	<rect y="0" class="st0" width="100" height="100"/>
	<g>
		<path class="st1" d="M17.4,50C17.4,32,32,17.4,50,17.4S82.6,32,82.6,50S68,82.6,50,82.6S17.4,68,17.4,50z"/>
		<g>
			<path class="st2" d="M39.2,62.3L39.2,62.3c-1.6-2-1.3-4.9,0.7-6.4l23-18.7c2-1.6,4.8-1.3,6.4,0.7l0,0c1.6,2,1.3,4.9-0.7,6.4
				l-23,18.7C43.7,64.5,40.8,64.2,39.2,62.3z"/>
			<path class="st2" d="M31.3,45.3L31.3,45.3c2-1.6,4.9-1.3,6.4,0.7l8.5,10.4c1.6,2,1.3,4.8-0.7,6.4l0,0c-2,1.6-4.9,1.3-6.4-0.7
				l-8.5-10.4C29,49.8,29.3,46.9,31.3,45.3z"/>
		</g>
	</g>
</g>
</svg>
