<?xml version="1.0" encoding="utf-8"?>
<!-- Generator: Adobe Illustrator 27.1.1, SVG Export Plug-In . SVG Version: 6.00 Build 0)  -->
<svg version="1.1" id="Camada_1" xmlns="http://www.w3.org/2000/svg" xmlns:xlink="http://www.w3.org/1999/xlink" x="0px" y="0px"
	 viewBox="0 0 100 100" style="enable-background:new 0 0 100 100;" xml:space="preserve">
<style type="text/css">
	.st0{fill:#4D4D4D;}
	.st1{fill:#F2F2F2;}
</style>
<g>
	<rect x="0" class="st0" width="100" height="100"/>
	<g>
		<g>
			<g>
				<path class="st1" d="M28,45.3c1.8,0,3.5-1.1,4.2-2.8c2.9-7,9.8-11.9,17.8-11.9c4.4,0,8.5,1.5,11.7,4l-2.5,0.4
					c-0.9,0.1-1.5,0.8-1.7,1.7c-0.1,0.9,0.4,1.7,1.2,2.1l14,6.3c0.6,0.3,1.3,0.2,1.9-0.1c0.6-0.4,0.9-1,0.9-1.7l0.1-15.4
					c0-0.9-0.6-1.7-1.4-1.9c-0.8-0.3-1.7,0.1-2.2,0.8L70,29.7c-5.1-5.1-12.2-8.2-20-8.2c-11.8,0-21.9,7.2-26.2,17.4
					c-0.6,1.4-0.4,3,0.4,4.3C25,44.6,26.5,45.3,28,45.3z"/>
			</g>
			<g>
				<path class="st1" d="M75.8,56.7c-0.8-1.3-2.3-2.1-3.8-2.1c-1.8,0-3.5,1.1-4.2,2.8c-2.9,7-9.8,11.9-17.8,11.9
					c-4.4,0-8.5-1.5-11.7-4l2.5-0.4c0.9-0.1,1.5-0.8,1.7-1.7c0.1-0.9-0.4-1.7-1.2-2.1l-14-6.3c-0.6-0.3-1.3-0.2-1.9,0.1
					c-0.6,0.4-0.9,1-0.9,1.7l-0.1,15.4c0,0.9,0.6,1.7,1.4,1.9c0.8,0.3,1.7-0.1,2.2-0.8l1.9-2.9c5.1,5.1,12.2,8.2,20,8.2
					c11.8,0,21.9-7.2,26.2-17.4C76.8,59.6,76.7,58,75.8,56.7z"/>
			</g>
		</g>
	</g>
</g>
</svg>
