<?xml version="1.0" encoding="utf-8"?>
<!-- Generator: Adobe Illustrator 27.1.1, SVG Export Plug-In . SVG Version: 6.00 Build 0)  -->
<svg version="1.1" id="Camada_1" xmlns="http://www.w3.org/2000/svg" xmlns:xlink="http://www.w3.org/1999/xlink" x="0px" y="0px"
	 viewBox="0 0 100 100" style="enable-background:new 0 0 100 100;" xml:space="preserve">
<style type="text/css">
	.st0{fill:#4D4D4D;}
	.st1{fill:#F2F2F2;}
</style>
<g>
	<rect x="0" class="st0" width="100" height="100"/>
	<g>
		<g>
			<polygon class="st1" points="70.2,65.2 62.1,57.1 57.1,62.1 65.2,70.2 57.1,78.4 78.4,78.4 78.4,57.1 			"/>
		</g>
		<g>
			<polygon class="st1" points="42.9,21.6 21.6,21.6 21.6,42.9 29.8,34.8 37.8,42.8 42.8,37.8 34.8,29.8 			"/>
		</g>
		<g>
			<polygon class="st1" points="42.9,62.1 37.9,57.1 29.8,65.2 21.6,57.1 21.6,78.4 42.9,78.4 34.8,70.2 			"/>
		</g>
		<g>
			<polygon class="st1" points="78.4,21.6 57.1,21.6 65.2,29.8 57.2,37.8 62.2,42.8 70.2,34.8 78.4,42.9 			"/>
		</g>
	</g>
</g>
</svg>
