<?xml version="1.0" encoding="utf-8"?>
<!-- Generator: Adobe Illustrator 22.0.0, SVG Export Plug-In . SVG Version: 6.00 Build 0)  -->
<svg version="1.1" id="Layer_1" xmlns="http://www.w3.org/2000/svg" xmlns:xlink="http://www.w3.org/1999/xlink" x="0px" y="0px"
	 viewBox="0 0 45 45" style="enable-background:new 0 0 45 45;" xml:space="preserve">
<style type="text/css">
	.st0{fill:#808080;}
	.st1{fill:#F2F2F2;}
</style>
<g>
	<g>
		<rect y="0" class="st0" width="45" height="45"/>
	</g>
	<g>
		<circle class="st1" cx="9.3" cy="29.5" r="1.7"/>
		<circle class="st1" cx="15.8" cy="31" r="1.7"/>
		<circle class="st1" cx="21.9" cy="32.7" r="1.7"/>
		<circle class="st1" cx="20.2" cy="26.2" r="1.7"/>
		<circle class="st1" cx="7.9" cy="23.5" r="1.7"/>
		<circle class="st1" cx="14" cy="25.2" r="1.7"/>
		<circle class="st1" cx="12.3" cy="18.7" r="1.7"/>
		<circle class="st1" cx="17.5" cy="21.1" r="1.7"/>
		<circle class="st1" cx="23.6" cy="22.8" r="1.7"/>
		<circle class="st1" cx="21.9" cy="16.2" r="1.7"/>
		<circle class="st1" cx="28.5" cy="17.8" r="1.7"/>
		<circle class="st1" cx="34.6" cy="19.5" r="1.7"/>
		<circle class="st1" cx="32.9" cy="13" r="1.7"/>
		<circle class="st1" cx="20.6" cy="10.3" r="1.7"/>
		<circle class="st1" cx="26.7" cy="12" r="1.7"/>
		<circle class="st1" cx="27.1" cy="34.7" r="1.7"/>
		<circle class="st1" cx="25.7" cy="28.8" r="1.7"/>
		<circle class="st1" cx="31.8" cy="30.5" r="1.7"/>
		<circle class="st1" cx="30.1" cy="23.9" r="1.7"/>
		<circle class="st1" cx="37.1" cy="25.6" r="1.7"/>
	</g>
</g>
</svg>
