<?xml version="1.0" encoding="utf-8"?>
<!-- Generator: Adobe Illustrator 22.0.0, SVG Export Plug-In . SVG Version: 6.00 Build 0)  -->
<svg version="1.1" id="Layer_1" xmlns="http://www.w3.org/2000/svg" xmlns:xlink="http://www.w3.org/1999/xlink" x="0px" y="0px"
	 viewBox="0 0 45 45" style="enable-background:new 0 0 45 45;" xml:space="preserve">
<style type="text/css">
	.st0{fill:#808080;}
	.st1{fill:#F2F2F2;}
</style>
<g>
	<g>
		<rect class="st0" width="45" height="45"/>
	</g>
	<g>
		<path class="st1" d="M10.1,13.3h24.8c-0.4-0.6-0.9-1.2-1.5-1.7H11.6C11,12.1,10.6,12.7,10.1,13.3z"/>
		<path class="st1" d="M36.3,15.6H8.7c-0.3,0.6-0.5,1.1-0.7,1.7h29.1C36.8,16.7,36.6,16.1,36.3,15.6z"/>
		<path class="st1" d="M10.1,31.7c0.4,0.6,0.9,1.2,1.5,1.7h21.9c0.5-0.5,1-1.1,1.5-1.7H10.1z"/>
		<path class="st1" d="M37.9,21.3c0-0.6-0.1-1.1-0.2-1.7H7.3c-0.1,0.6-0.2,1.1-0.2,1.7H37.9z"/>
		<path class="st1" d="M37.7,25.4c0.1-0.6,0.2-1.1,0.2-1.7H7.1c0,0.6,0.1,1.1,0.2,1.7H37.7z"/>
		<path class="st1" d="M14.6,35.8c2.3,1.4,5,2.2,7.9,2.2s5.6-0.8,7.9-2.2H14.6z"/>
		<path class="st1" d="M30.4,9.2c-2.3-1.4-5-2.2-7.9-2.2s-5.6,0.8-7.9,2.2H30.4z"/>
		<path class="st1" d="M7.9,27.7c0.2,0.6,0.5,1.2,0.7,1.7h27.6c0.3-0.6,0.5-1.1,0.7-1.7H7.9z"/>
	</g>
</g>
</svg>
