<?xml version="1.0" encoding="utf-8"?>
<!-- Generator: Adobe Illustrator 22.0.0, SVG Export Plug-In . SVG Version: 6.00 Build 0)  -->
<svg version="1.1" id="Layer_1" xmlns="http://www.w3.org/2000/svg" xmlns:xlink="http://www.w3.org/1999/xlink" x="0px" y="0px"
	 viewBox="0 0 45 45" style="enable-background:new 0 0 45 45;" xml:space="preserve">
<style type="text/css">
	.st0{fill:#4D4D4D;}
	.st1{fill:#F2F2F2;}
</style>
<g>
	<rect class="st0" width="45" height="45"/>
	<g>
		<g>
			<g>
				<path class="st1" d="M37,21.9l-4.8-4.5c-0.2-0.2-0.6-0.3-0.9-0.2c-0.3,0.1-0.5,0.4-0.5,0.8v2h-5.7v-5.7h2c0.3,0,0.6-0.2,0.8-0.5
					c0.1-0.3,0.1-0.7-0.2-0.9L23.1,8c-0.2-0.2-0.4-0.3-0.6-0.3S22,7.9,21.9,8l-4.5,4.8c-0.2,0.2-0.3,0.6-0.2,0.9
					c0.1,0.3,0.4,0.5,0.8,0.5h2v5.7h-5.7v-2c0-0.3-0.2-0.6-0.5-0.8c-0.3-0.1-0.7-0.1-0.9,0.2L8,21.9c-0.2,0.2-0.3,0.4-0.3,0.6
					c0,0.2,0.1,0.5,0.3,0.6l4.8,4.5c0.2,0.2,0.6,0.3,0.9,0.2c0.3-0.1,0.5-0.4,0.5-0.8v-2h5.7v5.7h-2c-0.3,0-0.6,0.2-0.8,0.5
					c-0.1,0.3-0.1,0.7,0.2,0.9l4.5,4.8c0.2,0.2,0.4,0.3,0.6,0.3c0.2,0,0.5-0.1,0.6-0.3l4.5-4.8c0.2-0.2,0.3-0.6,0.2-0.9
					c-0.1-0.3-0.4-0.5-0.8-0.5h-2v-5.7h5.7v2c0,0.3,0.2,0.6,0.5,0.8c0.3,0.1,0.7,0.1,0.9-0.2l4.8-4.5c0.2-0.2,0.3-0.4,0.3-0.6
					C37.2,22.3,37.1,22,37,21.9z"/>
			</g>
		</g>
	</g>
</g>
</svg>
