<?xml version="1.0" encoding="utf-8"?>
<!-- Generator: Adobe Illustrator 22.0.0, SVG Export Plug-In . SVG Version: 6.00 Build 0)  -->
<svg version="1.1" id="Layer_1" xmlns="http://www.w3.org/2000/svg" xmlns:xlink="http://www.w3.org/1999/xlink" x="0px" y="0px"
	 viewBox="0 0 74 48" style="enable-background:new 0 0 74 48;" xml:space="preserve">
<style type="text/css">
	.st0{fill:#808080;}
	.st1{fill:#F2F2F2;}
</style>
<g>
	<g>
		<rect class="st0" width="74" height="48"/>
	</g>
	<g>
		<g>
			<path class="st1" d="M46.1,35.7H28c-1.5,0-2.6-1.2-2.6-2.6v0c0-1.5,1.2-2.6,2.6-2.6h18.1c1.5,0,2.6,1.2,2.6,2.6v0
				C48.7,34.5,47.5,35.7,46.1,35.7z"/>
			<path class="st1" d="M27.2,36.3c0,0.1,0,0.2,0,0.3v0c0,1.3,1.1,2.3,2.4,2.3h14.9c1.3,0,2.4-1.1,2.4-2.3v0c0-0.1,0-0.2,0-0.3H27.2
				z"/>
			<path class="st1" d="M41.5,29.8v-1.3c0-0.4-0.4-0.8-0.8-0.8h-7.3c-0.5,0-0.8,0.4-0.8,0.8v1.3H41.5z"/>
			<path class="st1" d="M37,9.6c-3.3,0-6,2.7-6,6c0,1.4,0.5,2.7,1.3,3.8c0.2,0.2,0.3,0.4,0.5,0.6c0,0,0.1,0.1,0.1,0.1
				c1.4,1.7,2.3,3.8,2.3,6.2c0,0.1,0,0.2,0,0.3H37h1.8c0-0.1,0-0.2,0-0.3c0-2.4,0.8-4.5,2.3-6.2c0,0,0-0.1,0.1-0.1
				c0.2-0.2,0.4-0.4,0.5-0.6c0.8-1,1.3-2.3,1.3-3.8C43.1,12.3,40.4,9.6,37,9.6z"/>
		</g>
	</g>
</g>
</svg>
