<?xml version="1.0" encoding="utf-8"?>
<!-- Generator: Adobe Illustrator 22.0.0, SVG Export Plug-In . SVG Version: 6.00 Build 0)  -->
<svg version="1.1" id="Layer_1" xmlns="http://www.w3.org/2000/svg" xmlns:xlink="http://www.w3.org/1999/xlink" x="0px" y="0px"
	 viewBox="0 0 74 48" style="enable-background:new 0 0 74 48;" xml:space="preserve">
<style type="text/css">
	.st0{fill:#808080;}
	.st1{fill:#F2F2F2;}
</style>
<g>
	<rect class="st0" width="74" height="48"/>
</g>
<g>
	<path class="st1" d="M50.8,37c0.8,0,1.4-0.2,2-0.7l-9.5-9.5c-0.2,0.2-0.4,0.3-0.7,0.5c-0.7,0.5-1.3,0.9-1.7,1.2
		c-0.4,0.3-1,0.6-1.8,0.9c-0.7,0.3-1.4,0.5-2.1,0.5h0h0c-0.6,0-1.3-0.2-2.1-0.5c-0.7-0.3-1.3-0.6-1.8-0.9c-0.4-0.3-1-0.7-1.7-1.2
		c-0.2-0.1-0.4-0.3-0.7-0.5l-9.5,9.5c0.6,0.5,1.2,0.7,2,0.7H50.8z"/>
	<path class="st1" d="M22.5,20.8c-0.7-0.5-1.3-1-1.9-1.6v14.5l8.4-8.4C27.3,24,25.1,22.6,22.5,20.8z"/>
	<path class="st1" d="M51.5,20.8C49,22.5,46.8,24,45,25.2l8.4,8.4V19.1C52.9,19.7,52.2,20.3,51.5,20.8z"/>
	<path class="st1" d="M50.8,11H23.2c-1,0-1.7,0.3-2.2,1c-0.5,0.6-0.8,1.5-0.8,2.4c0,0.8,0.3,1.6,1,2.6c0.7,0.9,1.4,1.6,2.2,2.2
		c0.4,0.3,1.7,1.2,3.8,2.7c1.2,0.8,2.2,1.5,3,2.1c0.7,0.5,1.4,1,1.9,1.3c0.1,0,0.2,0.1,0.3,0.2c0.1,0.1,0.3,0.2,0.5,0.4
		c0.4,0.3,0.7,0.5,1,0.7c0.3,0.2,0.6,0.4,1,0.6c0.4,0.2,0.7,0.4,1.1,0.5c0.3,0.1,0.6,0.2,0.9,0.2h0h0c0.3,0,0.6-0.1,0.9-0.2
		c0.3-0.1,0.7-0.3,1.1-0.5c0.4-0.2,0.7-0.4,1-0.6c0.3-0.2,0.6-0.4,1-0.7c0.2-0.2,0.4-0.3,0.5-0.4c0.1-0.1,0.2-0.2,0.3-0.2
		c0.4-0.3,1-0.7,1.9-1.3c1.6-1.1,3.8-2.7,6.9-4.8c0.9-0.6,1.7-1.4,2.3-2.3c0.6-0.9,0.9-1.8,0.9-2.8c0-0.8-0.3-1.5-0.9-2.1
		C52.3,11.3,51.6,11,50.8,11z"/>
</g>
</svg>
