<?xml version="1.0" encoding="utf-8"?>
<!-- Generator: Adobe Illustrator 22.0.0, SVG Export Plug-In . SVG Version: 6.00 Build 0)  -->
<svg version="1.1" id="Layer_1" xmlns="http://www.w3.org/2000/svg" xmlns:xlink="http://www.w3.org/1999/xlink" x="0px" y="0px"
	 viewBox="0 0 74 48" style="enable-background:new 0 0 74 48;" xml:space="preserve">
<style type="text/css">
	.st0{fill:#808080;}
	.st1{fill:#F2F2F2;}
</style>
<g>
	<g>
		<rect class="st0" width="74" height="48"/>
	</g>
	<g>
		<g>
			<g>
				<path class="st1" d="M31.8,14.8h10.7c0.3,0,0.6-0.3,0.6-0.6V9.6H31.2v4.7C31.2,14.5,31.5,14.8,31.8,14.8z"/>
				<path class="st1" d="M51,16.7l-6-6v3.5c0,1.4-1.1,2.5-2.5,2.5H31.8c-1.4,0-2.5-1.1-2.5-2.5V9.6h-3.9c-1.5,0-2.6,1.2-2.6,2.6
					v23.2c0,1.4,1.2,2.6,2.6,2.6h23.4c1.5,0,2.6-1.2,2.6-2.6V17.8C51.5,17.4,51.3,17,51,16.7z M47,32c0,0.8-0.7,1.5-1.5,1.5H28.8
					c-0.8,0-1.5-0.7-1.5-1.5v-7.9c0-0.8,0.7-1.5,1.5-1.5h16.7c0.8,0,1.5,0.7,1.5,1.5V32z"/>
				<path class="st1" d="M43.7,25H30.6c-0.5,0-1,0.4-1,0.9s0.4,0.9,1,0.9h13.2c0.5,0,1-0.4,1-0.9S44.3,25,43.7,25z"/>
				<path class="st1" d="M41.8,28.8h-9.3c-0.5,0-1,0.4-1,0.9c0,0.5,0.4,0.9,1,0.9h9.3c0.5,0,1-0.4,1-0.9
					C42.8,29.2,42.4,28.8,41.8,28.8z"/>
			</g>
		</g>
	</g>
</g>
</svg>
