<?xml version="1.0" encoding="utf-8"?>
<!-- Generator: Adobe Illustrator 22.0.0, SVG Export Plug-In . SVG Version: 6.00 Build 0)  -->
<svg version="1.1" id="Layer_1" xmlns="http://www.w3.org/2000/svg" xmlns:xlink="http://www.w3.org/1999/xlink" x="0px" y="0px"
	 viewBox="0 0 45 45" style="enable-background:new 0 0 45 45;" xml:space="preserve">
<style type="text/css">
	.st0{fill:#4D4D4D;}
	.st1{fill:#F2F2F2;}
</style>
<g>
	<rect class="st0" width="45" height="45"/>
	<g>
		<path class="st1" d="M27.1,14.8l0-2.6l-1.6,0l0-2.9l-3.6,0l0,2.9l-1.6,0l0,2.6c-1.4,1.1-2.3,2.8-2.3,4.6l0,18.8l11.4,0l0-18.8
			C29.4,17.5,28.5,15.8,27.1,14.8z"/>
		<rect x="10.2" y="5" transform="matrix(0.3923 -0.9198 0.9198 0.3923 1.456 13.1751)" class="st1" width="1" height="1"/>
		<rect x="13.8" y="6.5" transform="matrix(0.3923 -0.9198 0.9198 0.3923 2.2318 17.425)" class="st1" width="1" height="1"/>
		<rect x="8.4" y="4.2" transform="matrix(0.3923 -0.9198 0.9198 0.3923 1.0678 11.0498)" class="st1" width="1" height="1"/>
		<rect x="19.2" y="8.8" transform="matrix(0.3923 -0.9198 0.9198 0.3923 3.397 23.8013)" class="st1" width="1" height="1"/>
		<rect x="12" y="5.8" transform="matrix(0.3923 -0.9198 0.9198 0.3923 1.8442 15.3002)" class="st1" width="1" height="1"/>
		<rect x="17.4" y="8.1" transform="matrix(0.3923 -0.9198 0.9198 0.3923 3.0081 21.6752)" class="st1" width="1" height="1"/>
		<rect x="15.6" y="7.3" transform="matrix(0.3923 -0.9198 0.9198 0.3923 2.6206 19.5509)" class="st1" width="1" height="1"/>
		<rect x="9.9" y="15.4" transform="matrix(0.947 -0.3212 0.3212 0.947 -4.5489 4.1893)" class="st1" width="1" height="1"/>
		<rect x="17.4" y="12.9" transform="matrix(0.947 -0.3212 0.3212 0.947 -3.346 6.439)" class="st1" width="1" height="1"/>
		<rect x="13.6" y="14.1" transform="matrix(0.947 -0.3212 0.3212 0.947 -3.9477 5.315)" class="st1" width="1" height="1"/>
		<rect x="11.8" y="14.8" transform="matrix(0.947 -0.3211 0.3211 0.947 -4.2472 4.7502)" class="st1" width="1" height="1"/>
		<rect x="15.5" y="13.5" transform="matrix(0.947 -0.3211 0.3211 0.947 -3.6461 5.8749)" class="st1" width="1" height="1"/>
		<rect x="8.1" y="16" transform="matrix(0.947 -0.3211 0.3211 0.947 -4.848 3.6248)" class="st1" width="1" height="1"/>
		<rect x="6.2" y="16.6" transform="matrix(0.947 -0.3211 0.3211 0.947 -5.1486 3.0626)" class="st1" width="1" height="1"/>
		<rect x="2.5" y="17.9" transform="matrix(0.947 -0.3212 0.3212 0.947 -5.7515 1.9385)" class="st1" width="1" height="1"/>
		<rect x="4.4" y="17.3" transform="matrix(0.947 -0.3211 0.3211 0.947 -5.4488 2.4997)" class="st1" width="1" height="1"/>
		
			<rect x="8.4" y="10" transform="matrix(7.351191e-02 -0.9973 0.9973 7.351191e-02 -2.1979 18.5637)" class="st1" width="1" height="1"/>
		
			<rect x="6.4" y="9.8" transform="matrix(7.360651e-02 -0.9973 0.9973 7.360651e-02 -3.865 16.4806)" class="st1" width="1" height="1"/>
		
			<rect x="10.4" y="10.1" transform="matrix(7.360651e-02 -0.9973 0.9973 7.360651e-02 -0.5319 20.6459)" class="st1" width="1" height="1"/>
		
			<rect x="12.3" y="10.3" transform="matrix(7.358494e-02 -0.9973 0.9973 7.358494e-02 1.135 22.7286)" class="st1" width="1" height="1"/>
		
			<rect x="14.3" y="10.4" transform="matrix(7.359572e-02 -0.9973 0.9973 7.359572e-02 2.8018 24.8117)" class="st1" width="1" height="1"/>
		
			<rect x="18.2" y="10.7" transform="matrix(7.353345e-02 -0.9973 0.9973 7.353345e-02 6.1366 28.9778)" class="st1" width="1" height="1"/>
		
			<rect x="16.2" y="10.6" transform="matrix(7.359572e-02 -0.9973 0.9973 7.359572e-02 4.4684 26.8938)" class="st1" width="1" height="1"/>
	</g>
</g>
</svg>
