<?xml version="1.0" encoding="utf-8"?>
<!-- Generator: Adobe Illustrator 22.0.0, SVG Export Plug-In . SVG Version: 6.00 Build 0)  -->
<svg version="1.1" id="Layer_1" xmlns="http://www.w3.org/2000/svg" xmlns:xlink="http://www.w3.org/1999/xlink" x="0px" y="0px"
	 viewBox="0 0 45 45" style="enable-background:new 0 0 45 45;" xml:space="preserve">
<style type="text/css">
	.st0{fill:#4D4D4D;}
	.st1{fill:#F2F2F2;}
</style>
<g>
	<rect class="st0" width="45" height="45"/>
	<g>
		<g>
			<g>
				<path class="st1" d="M12.6,20.4c0.8,0,1.6-0.5,1.9-1.3c1.3-3.1,4.4-5.3,8-5.3c2,0,3.8,0.7,5.3,1.8l-1.1,0.2
					c-0.4,0.1-0.7,0.4-0.7,0.8c-0.1,0.4,0.2,0.8,0.5,0.9l6.3,2.8c0.3,0.1,0.6,0.1,0.9-0.1c0.3-0.2,0.4-0.4,0.4-0.7l0-6.9
					c0-0.4-0.3-0.7-0.6-0.9c-0.4-0.1-0.8,0-1,0.4l-0.9,1.3c-2.3-2.3-5.5-3.7-9-3.7c-5.3,0-9.9,3.2-11.8,7.8
					c-0.3,0.6-0.2,1.4,0.2,1.9C11.3,20.1,11.9,20.4,12.6,20.4z"/>
			</g>
			<g>
				<path class="st1" d="M34.1,25.5c-0.4-0.6-1-0.9-1.7-0.9c-0.8,0-1.6,0.5-1.9,1.3c-1.3,3.1-4.4,5.3-8,5.3c-2,0-3.8-0.7-5.3-1.8
					l1.1-0.2c0.4-0.1,0.7-0.4,0.7-0.8c0.1-0.4-0.2-0.8-0.5-0.9l-6.3-2.8c-0.3-0.1-0.6-0.1-0.9,0.1c-0.3,0.2-0.4,0.4-0.4,0.7l0,6.9
					c0,0.4,0.3,0.7,0.6,0.9c0.4,0.1,0.8,0,1-0.4l0.9-1.3c2.3,2.3,5.5,3.7,9,3.7c5.3,0,9.9-3.2,11.8-7.8
					C34.6,26.8,34.5,26.1,34.1,25.5z"/>
			</g>
		</g>
	</g>
</g>
</svg>
