<?xml version="1.0" encoding="utf-8"?>
<!-- Generator: Adobe Illustrator 22.0.0, SVG Export Plug-In . SVG Version: 6.00 Build 0)  -->
<svg version="1.1" id="Layer_1" xmlns="http://www.w3.org/2000/svg" xmlns:xlink="http://www.w3.org/1999/xlink" x="0px" y="0px"
	 viewBox="0 0 45 45" style="enable-background:new 0 0 45 45;" xml:space="preserve">
<style type="text/css">
	.st0{fill:#4D4D4D;}
	.st1{fill:#F2F2F2;}
</style>
<g>
	<rect class="st0" width="45" height="45"/>
	<g>
		<g>
			<polygon class="st1" points="31.6,29.3 27.9,25.7 25.7,27.9 29.3,31.6 25.7,35.3 35.3,35.3 35.3,25.7 			"/>
		</g>
		<g>
			<polygon class="st1" points="19.3,9.7 9.7,9.7 9.7,19.3 13.4,15.7 17,19.3 19.3,17 15.7,13.4 			"/>
		</g>
		<g>
			<polygon class="st1" points="19.3,27.9 17.1,25.7 13.4,29.3 9.7,25.7 9.7,35.3 19.3,35.3 15.7,31.6 			"/>
		</g>
		<g>
			<polygon class="st1" points="35.3,9.7 25.7,9.7 29.3,13.4 25.7,17 28,19.3 31.6,15.7 35.3,19.3 			"/>
		</g>
	</g>
</g>
</svg>
