<?xml version="1.0" encoding="utf-8"?>
<!-- Generator: Adobe Illustrator 22.0.0, SVG Export Plug-In . SVG Version: 6.00 Build 0)  -->
<svg version="1.1" id="Layer_1" xmlns="http://www.w3.org/2000/svg" xmlns:xlink="http://www.w3.org/1999/xlink" x="0px" y="0px"
	 viewBox="0 0 45 45" style="enable-background:new 0 0 45 45;" xml:space="preserve">
<style type="text/css">
	.st0{fill:#4D4D4D;}
	.st1{fill:#39B54A;}
	.st2{fill:#F3F3F3;}
</style>
<g>
	<rect class="st0" width="45" height="45"/>
	<g>
		<path class="st1" d="M7.8,22.5c0-8.1,6.6-14.7,14.7-14.7s14.7,6.6,14.7,14.7s-6.6,14.7-14.7,14.7S7.8,30.6,7.8,22.5z"/>
		<g>
			<path class="st2" d="M17.7,28L17.7,28c-0.7-0.9-0.6-2.2,0.3-2.9l10.4-8.4c0.9-0.7,2.2-0.6,2.9,0.3l0,0c0.7,0.9,0.6,2.2-0.3,2.9
				l-10.4,8.4C19.7,29,18.4,28.9,17.7,28z"/>
			<path class="st2" d="M14.1,20.4L14.1,20.4c0.9-0.7,2.2-0.6,2.9,0.3l3.8,4.7c0.7,0.9,0.6,2.2-0.3,2.9l0,0
				c-0.9,0.7-2.2,0.6-2.9-0.3l-3.8-4.7C13.1,22.4,13.2,21.1,14.1,20.4z"/>
		</g>
	</g>
</g>
</svg>
